<svg id="pause" xmlns="http://www.w3.org/2000/svg" width="37.599" height="37.597" viewBox="0 0 37.599 37.597">
  <g id="Group_1577" data-name="Group 1577">
    <g id="Raggruppa_23" data-name="Raggruppa 23" transform="translate(0.085 0.004)">
      <path id="Path_1323-2" data-name="Path 1323-2" d="M2582.562,725.726a18.754,18.754,0,1,1-18.754-18.755h0A18.754,18.754,0,0,1,2582.562,725.726Z" transform="translate(-2545.053 -706.972)" fill="#53c48c"/>
    </g>
    <g id="Raggruppa_24" data-name="Raggruppa 24" transform="translate(0 0.088)">
      <path id="Path_1324-2" data-name="Path 1324-2" d="M2582.472,725.816a18.755,18.755,0,1,1-18.755-18.754h0A18.754,18.754,0,0,1,2582.472,725.816Z" transform="translate(-2544.963 -707.062)" fill="#53c48c"/>
    </g>
    <path id="Path_1325" data-name="Path 1325" d="M2582.568,725.722a18.754,18.754,0,1,1-18.754-18.754h0A18.754,18.754,0,0,1,2582.568,725.722Z" transform="translate(-2544.969 -706.968)" fill="#feffff"/>
  </g>
  <g id="pause-24px-2" transform="translate(11.26 11.082)">
    <path id="Path_1311-2" data-name="Path 1311-2" d="M2561.194,731.621h2.663V722.3h-2.663Zm5.326-9.32v9.32h2.663V722.3Z" transform="translate(-2557.2 -718.972)" fill="#53c48c"/>
    <path id="Path_1312-2" data-name="Path 1312-2" d="M2556.944,718.759h15.977v15.977h-15.977Z" transform="translate(-2556.944 -718.759)" fill="none"/>
  </g>
</svg>
