<svg id="logo" xmlns="http://www.w3.org/2000/svg" width="70.642" height="17.614" viewBox="0 0 70.642 17.614">
  <path id="Path_1260" data-name="Path 1260" d="M2388.89,131.738a7.647,7.647,0,0,0,1.72-4.593c0-1.641-.782-2.952-2.7-2.97-.587,0-2.873,1.211-5.393,2.755,0-.743.057-1.525.077-2.365,0-.233-.135-.331-.37-.331-.254-.021-1.954.156-2.247.214-.313.079-.43.234-.43.392v3.987c-.9.605-1.759,1.211-2.5,1.738a.7.7,0,0,0-.282.369,1.777,1.777,0,0,0-1.5-.7c-3.342,0-4.945,3.282-4.945,6.273a6.16,6.16,0,0,0,.036.658l-.094.125a.952.952,0,0,1-.763.488,1.174,1.174,0,0,1-.743-.371,10.766,10.766,0,0,0,.235-2.248c0-2.227-.724-4.239-2.15-4.239-.782,0-1.075.625-1.075,1.484a8.933,8.933,0,0,0,1.486,5.042,2.212,2.212,0,0,1-1.642,1.095c-.507,0-1.073-.314-1.661-1.193a6.591,6.591,0,0,0,.449-2.307c0-.861-.489-1.914-1.211-1.914-.8,0-1.152,1.113-1.192,2.246a5.268,5.268,0,0,0,.333,2.111,2.365,2.365,0,0,1-1.524,1.017c-.646,0-1.075-.725-1.075-2.561,0-1.446.176-3.185.176-3.655,0-.312-.254-.37-.782-.37-.333,0-.761.02-1.309.02s-.548.625-.548.625c-.019.564-.215,1.9-.215,3.617,0,1.757.2,4.944,2.776,4.944,1.5,0,2.7-1.623,2.833-1.88a.164.164,0,0,1,.156-.094c.43,0,.846,1.914,2.795,1.914,1.33,0,2.267-1.073,2.819-2.538a1.777,1.777,0,0,0,.878.251,1.828,1.828,0,0,0,1.261-.555,3.788,3.788,0,0,0,3.409,3.039c1.72,0,3.753-2.033,4.769-3.713a.417.417,0,0,0,.04-.236c0-.313-.136-.781-.314-.781a.112.112,0,0,0-.094.039c-.273.376-1.231,2.13-3.008,2.13-1.153,0-1.9-.94-2.247-2.13,2.384-1.465,4.006-3.165,4.006-4.417a2.47,2.47,0,0,0-.029-.382.242.242,0,0,0,.069.009.865.865,0,0,0,.43-.154l1.974-1.369V137.1c0,1.193,0,2.757-.021,3.889a.375.375,0,0,0,.352.39s1.446.021,2.424.021c.273,0,.273-.449.273-.449-.02-4.28-.094-7.094-.094-10.222V128.3a10.365,10.365,0,0,1,3.394-1.7,2.1,2.1,0,0,1,2.04,2.158c0,.042,0,.086-.007.128a4.255,4.255,0,0,1-.743,2.287,6.228,6.228,0,0,0-1.174-.117c-1.72,0-2.424.625-2.424,1.271,0,.665.725,1.33,1.819,1.33a3.783,3.783,0,0,0,2.068-.647,4.916,4.916,0,0,1,1.369,3.735c0,1.952-.8,3.184-1.544,3.184-.88-.02-1.565-1.386-1.74-1.74a.067.067,0,0,0-.021-.039.959.959,0,0,0-.741-.643c-.45.018-1.6.663-1.6,1.308,0,1.094,2.227,2.558,3.809,2.558a4.813,4.813,0,0,0,5.112-4.5c.01-.141.012-.283.009-.425a5.216,5.216,0,0,0-3.243-4.71m-15.967,3.732c-.018-.177-.018-.371-.018-.564,0-1.642.624-3.166,1.836-3.166.094,0,.489.038.489.646,0,.957-1.447,2.6-2.306,3.087" transform="translate(-2357.053 -123.781)" fill="#53c48c"/>
  <path id="Path_1261" data-name="Path 1261" d="M2429.667,136.5a.111.111,0,0,0-.094.038c-.274.376-1.231,2.13-3.008,2.13-1.152,0-1.895-.94-2.248-2.13,2.386-1.464,4.007-3.165,4.007-4.417a1.769,1.769,0,0,0-1.616-1.911,1.854,1.854,0,0,0-.24,0c-3.342,0-4.944,3.282-4.944,6.273a6.013,6.013,0,0,0,.032.612c-.585.805-1.381,1.692-1.947,1.692-.627,0-.94-.742-.94-3.773,2.714-3.889,2.853-6.566,2.853-8.111,0-1-.449-3.146-1.524-3.146-.94,0-3.968,2.444-4.008,4.025-.01.648-.019,1.528-.026,2.5a.223.223,0,0,0-.188-.075.832.832,0,0,0-.215.039s-1.194.43-2.444.86c.117-2.35.254-4.323.254-4.378a.357.357,0,0,0-.376-.391,11.6,11.6,0,0,0-2.013.683c-.312.236-.508,2.6-.606,5.061a.522.522,0,0,1-.156.059.305.305,0,0,0-.215.273s-.038.82-.038,1.074c0,.138.038.176.094.176a2.449,2.449,0,0,0,.234-.078c-.035,1.426-.054,2.756-.057,3.541a3.336,3.336,0,0,1-2.6,1.539c-1.152,0-1.9-.94-2.247-2.13,2.385-1.464,4.007-3.165,4.007-4.417a1.771,1.771,0,0,0-1.616-1.911,1.855,1.855,0,0,0-.24,0c-3.343,0-4.946,3.282-4.946,6.273,0,.2.011.408.031.609a3.364,3.364,0,0,1-2.631,1.579c-1.153,0-1.9-.94-2.247-2.13,2.385-1.464,4.007-3.165,4.007-4.417a1.77,1.77,0,0,0-1.618-1.911,1.833,1.833,0,0,0-.239,0c-3.342,0-4.946,3.282-4.946,6.273,0,2.481,1.5,4.749,3.654,4.749,1.467,0,3.16-1.477,4.256-2.954a3.76,3.76,0,0,0,3.384,2.954c1.373,0,2.946-1.3,4.042-2.673.2,1.936.907,2.653,1.8,2.653,1.214,0,2.787-1.316,3.958-2.771.282,1.612,1.235,2.672,2.413,2.672.9,0,2.48-1.851,3.3-2.9a3.779,3.779,0,0,0,3.4,3.014c1.72,0,3.753-2.033,4.768-3.713a.426.426,0,0,0,.041-.236c0-.313-.137-.779-.314-.779m-32.127-1.622c0-1.643.627-3.166,1.838-3.166.094,0,.488.039.488.646,0,.957-1.446,2.6-2.306,3.086a5.1,5.1,0,0,1-.02-.564m7.642,0c0-1.643.625-3.166,1.838-3.166.094,0,.489.039.489.646,0,.957-1.446,2.6-2.305,3.086a4.932,4.932,0,0,1-.021-.564m8.735,3.6c-.585,0-1-.411-1-1.212,0-1.211.04-2.913.117-4.592l2.443-.8c.449-.136.449-.391.449-.391s.012-.094.026-.225c0,.675-.006,1.369-.006,2.042,0,1.624.013,3.095.018,3.838a2.855,2.855,0,0,1-2.051,1.342m4.511-5.18s-.039,0-.039-.1c0,0-.019-4.336-.019-5.471,0-.176.019-1.954.724-1.954.353,0,.841.723.841,1.994,0,1.211-.782,4.651-1.41,5.431,0,0-.059.1-.1.1m5.668,1.585c0-1.643.627-3.166,1.838-3.166.094,0,.488.039.488.646,0,.957-1.446,2.6-2.306,3.086a5.174,5.174,0,0,1-.02-.564" transform="translate(-2359.333 -123.756)" fill="#53c48c"/>
</svg>
